<svg xmlns="http://www.w3.org/2000/svg" xmlns:xlink="http://www.w3.org/1999/xlink" style="display: none;">
  <defs>
    <!-- Navigation Icons -->
    <symbol id="arrow-up" viewBox="0 0 24 24">
      <path d="M12 19V5M5 12l7-7 7 7" stroke="currentColor" stroke-width="2" stroke-linecap="round" stroke-linejoin="round"/>
    </symbol>
    
    <symbol id="arrow-down" viewBox="0 0 24 24">
      <path d="M12 5v14M19 12l-7 7-7-7" stroke="currentColor" stroke-width="2" stroke-linecap="round" stroke-linejoin="round"/>
    </symbol>
    
    <symbol id="arrow-left" viewBox="0 0 24 24">
      <path d="M19 12H5M12 19l-7-7 7-7" stroke="currentColor" stroke-width="2" stroke-linecap="round" stroke-linejoin="round"/>
    </symbol>
    
    <symbol id="arrow-right" viewBox="0 0 24 24">
      <path d="M5 12h14M12 5l7 7-7 7" stroke="currentColor" stroke-width="2" stroke-linecap="round" stroke-linejoin="round"/>
    </symbol>
    
    <symbol id="chevron-up" viewBox="0 0 24 24">
      <path d="M18 15l-6-6-6 6" stroke="currentColor" stroke-width="2" stroke-linecap="round" stroke-linejoin="round"/>
    </symbol>
    
    <symbol id="chevron-down" viewBox="0 0 24 24">
      <path d="M6 9l6 6 6-6" stroke="currentColor" stroke-width="2" stroke-linecap="round" stroke-linejoin="round"/>
    </symbol>
    
    <symbol id="menu" viewBox="0 0 24 24">
      <path d="M3 12h18M3 6h18M3 18h18" stroke="currentColor" stroke-width="2" stroke-linecap="round" stroke-linejoin="round"/>
    </symbol>
    
    <symbol id="close" viewBox="0 0 24 24">
      <path d="M18 6L6 18M6 6l12 12" stroke="currentColor" stroke-width="2" stroke-linecap="round" stroke-linejoin="round"/>
    </symbol>
    
    <symbol id="home" viewBox="0 0 24 24">
      <path d="M3 9l9-7 9 7v11a2 2 0 01-2 2H5a2 2 0 01-2-2z" stroke="currentColor" stroke-width="2" stroke-linecap="round" stroke-linejoin="round"/>
      <path d="M9 22V12h6v10" stroke="currentColor" stroke-width="2" stroke-linecap="round" stroke-linejoin="round"/>
    </symbol>
    
    <!-- Action Icons -->
    <symbol id="add" viewBox="0 0 24 24">
      <path d="M12 5v14M5 12h14" stroke="currentColor" stroke-width="2" stroke-linecap="round" stroke-linejoin="round"/>
    </symbol>
    
    <symbol id="edit" viewBox="0 0 24 24">
      <path d="M11 4H4a2 2 0 00-2 2v14a2 2 0 002 2h14a2 2 0 002-2v-7" stroke="currentColor" stroke-width="2" stroke-linecap="round" stroke-linejoin="round"/>
      <path d="M18.5 2.5a2.121 2.121 0 013 3L12 15l-4 1 1-4 9.5-9.5z" stroke="currentColor" stroke-width="2" stroke-linecap="round" stroke-linejoin="round"/>
    </symbol>
    
    <symbol id="delete" viewBox="0 0 24 24">
      <path d="M3 6h18M8 6V4a2 2 0 012-2h4a2 2 0 012 2v2M19 6v14a2 2 0 01-2 2H7a2 2 0 01-2-2V6h14z" stroke="currentColor" stroke-width="2" stroke-linecap="round" stroke-linejoin="round"/>
    </symbol>
    
    <symbol id="save" viewBox="0 0 24 24">
      <path d="M19 21H5a2 2 0 01-2-2V5a2 2 0 012-2h11l5 5v11a2 2 0 01-2 2z" stroke="currentColor" stroke-width="2" stroke-linecap="round" stroke-linejoin="round"/>
      <path d="M17 21v-8H7v8M7 3v5h8" stroke="currentColor" stroke-width="2" stroke-linecap="round" stroke-linejoin="round"/>
    </symbol>
    
    <symbol id="search" viewBox="0 0 24 24">
      <circle cx="11" cy="11" r="8" stroke="currentColor" stroke-width="2" stroke-linecap="round" stroke-linejoin="round"/>
      <path d="M21 21l-4.35-4.35" stroke="currentColor" stroke-width="2" stroke-linecap="round" stroke-linejoin="round"/>
    </symbol>
    
    <symbol id="download" viewBox="0 0 24 24">
      <path d="M21 15v4a2 2 0 01-2 2H5a2 2 0 01-2-2v-4M7 10l5 5 5-5M12 15V3" stroke="currentColor" stroke-width="2" stroke-linecap="round" stroke-linejoin="round"/>
    </symbol>
    
    <symbol id="upload" viewBox="0 0 24 24">
      <path d="M21 15v4a2 2 0 01-2 2H5a2 2 0 01-2-2v-4M17 8l-5-5-5 5M12 3v12" stroke="currentColor" stroke-width="2" stroke-linecap="round" stroke-linejoin="round"/>
    </symbol>
    
    <symbol id="share" viewBox="0 0 24 24">
      <circle cx="18" cy="5" r="3" stroke="currentColor" stroke-width="2" stroke-linecap="round" stroke-linejoin="round"/>
      <circle cx="6" cy="12" r="3" stroke="currentColor" stroke-width="2" stroke-linecap="round" stroke-linejoin="round"/>
      <circle cx="18" cy="19" r="3" stroke="currentColor" stroke-width="2" stroke-linecap="round" stroke-linejoin="round"/>
      <path d="M8.59 13.51l6.83 3.98M15.41 6.51l-6.82 3.98" stroke="currentColor" stroke-width="2" stroke-linecap="round" stroke-linejoin="round"/>
    </symbol>
    
    <!-- Media Icons -->
    <symbol id="play" viewBox="0 0 24 24">
      <polygon points="5 3 19 12 5 21 5 3" fill="currentColor"/>
    </symbol>
    
    <symbol id="pause" viewBox="0 0 24 24">
      <rect x="6" y="4" width="4" height="16" fill="currentColor"/>
      <rect x="14" y="4" width="4" height="16" fill="currentColor"/>
    </symbol>
    
    <symbol id="stop" viewBox="0 0 24 24">
      <rect x="5" y="5" width="14" height="14" rx="2" fill="currentColor"/>
    </symbol>
    
    <symbol id="camera" viewBox="0 0 24 24">
      <path d="M23 19a2 2 0 01-2 2H3a2 2 0 01-2-2V8a2 2 0 012-2h4l2-3h6l2 3h4a2 2 0 012 2z" stroke="currentColor" stroke-width="2" stroke-linecap="round" stroke-linejoin="round"/>
      <circle cx="12" cy="13" r="4" stroke="currentColor" stroke-width="2" stroke-linecap="round" stroke-linejoin="round"/>
    </symbol>
    
    <symbol id="video" viewBox="0 0 24 24">
      <path d="M23 7l-7 5 7 5V7z" stroke="currentColor" stroke-width="2" stroke-linecap="round" stroke-linejoin="round"/>
      <rect x="1" y="5" width="15" height="14" rx="2" stroke="currentColor" stroke-width="2" stroke-linecap="round" stroke-linejoin="round"/>
    </symbol>
    
    <!-- Status Icons -->
    <symbol id="check" viewBox="0 0 24 24">
      <path d="M20 6L9 17l-5-5" stroke="currentColor" stroke-width="2" stroke-linecap="round" stroke-linejoin="round"/>
    </symbol>
    
    <symbol id="check-circle" viewBox="0 0 24 24">
      <circle cx="12" cy="12" r="10" stroke="currentColor" stroke-width="2" stroke-linecap="round" stroke-linejoin="round"/>
      <path d="M9 12l2 2 4-4" stroke="currentColor" stroke-width="2" stroke-linecap="round" stroke-linejoin="round"/>
    </symbol>
    
    <symbol id="error-circle" viewBox="0 0 24 24">
      <circle cx="12" cy="12" r="10" stroke="currentColor" stroke-width="2" stroke-linecap="round" stroke-linejoin="round"/>
      <path d="M15 9l-6 6M9 9l6 6" stroke="currentColor" stroke-width="2" stroke-linecap="round" stroke-linejoin="round"/>
    </symbol>
    
    <symbol id="warning" viewBox="0 0 24 24">
      <path d="M10.29 3.86L1.82 18a2 2 0 001.71 3h16.94a2 2 0 001.71-3L13.71 3.86a2 2 0 00-3.42 0z" stroke="currentColor" stroke-width="2" stroke-linecap="round" stroke-linejoin="round"/>
      <path d="M12 9v4M12 17h.01" stroke="currentColor" stroke-width="2" stroke-linecap="round" stroke-linejoin="round"/>
    </symbol>
    
    <symbol id="info" viewBox="0 0 24 24">
      <circle cx="12" cy="12" r="10" stroke="currentColor" stroke-width="2" stroke-linecap="round" stroke-linejoin="round"/>
      <path d="M12 16v-4M12 8h.01" stroke="currentColor" stroke-width="2" stroke-linecap="round" stroke-linejoin="round"/>
    </symbol>
    
    <symbol id="help" viewBox="0 0 24 24">
      <circle cx="12" cy="12" r="10" stroke="currentColor" stroke-width="2" stroke-linecap="round" stroke-linejoin="round"/>
      <path d="M9.09 9a3 3 0 015.83 1c0 2-3 3-3 3M12 17h.01" stroke="currentColor" stroke-width="2" stroke-linecap="round" stroke-linejoin="round"/>
    </symbol>
    
    <symbol id="star" viewBox="0 0 24 24">
      <path d="M12 2l3.09 6.26L22 9.27l-5 4.87 1.18 6.88L12 17.77l-6.18 3.25L7 14.14 2 9.27l6.91-1.01L12 2z" stroke="currentColor" stroke-width="2" stroke-linecap="round" stroke-linejoin="round"/>
    </symbol>
    
    <symbol id="star-filled" viewBox="0 0 24 24">
      <path d="M12 2l3.09 6.26L22 9.27l-5 4.87 1.18 6.88L12 17.77l-6.18 3.25L7 14.14 2 9.27l6.91-1.01L12 2z" fill="currentColor"/>
    </symbol>
    
    <symbol id="heart" viewBox="0 0 24 24">
      <path d="M20.84 4.61a5.5 5.5 0 00-7.78 0L12 5.67l-1.06-1.06a5.5 5.5 0 00-7.78 7.78l1.06 1.06L12 21.23l7.78-7.78 1.06-1.06a5.5 5.5 0 000-7.78z" stroke="currentColor" stroke-width="2" stroke-linecap="round" stroke-linejoin="round"/>
    </symbol>
    
    <symbol id="heart-filled" viewBox="0 0 24 24">
      <path d="M20.84 4.61a5.5 5.5 0 00-7.78 0L12 5.67l-1.06-1.06a5.5 5.5 0 00-7.78 7.78l1.06 1.06L12 21.23l7.78-7.78 1.06-1.06a5.5 5.5 0 000-7.78z" fill="currentColor"/>
    </symbol>
    
    <symbol id="thumb-up" viewBox="0 0 24 24">
      <path d="M14 9V5a3 3 0 00-3-3l-4 9v11h11.28a2 2 0 002-1.7l1.38-9a2 2 0 00-2-2.3zM7 22H4a2 2 0 01-2-2v-7a2 2 0 012-2h3" stroke="currentColor" stroke-width="2" stroke-linecap="round" stroke-linejoin="round"/>
    </symbol>
    
    <symbol id="thumb-down" viewBox="0 0 24 24">
      <path d="M10 15v4a3 3 0 003 3l4-9V2H5.72a2 2 0 00-2 1.7l-1.38 9a2 2 0 002 2.3zm7-13h2.67A2.31 2.31 0 0122 4v7a2.31 2.31 0 01-2.33 2H17" stroke="currentColor" stroke-width="2" stroke-linecap="round" stroke-linejoin="round"/>
    </symbol>
    
    <!-- User Icons -->
    <symbol id="user" viewBox="0 0 24 24">
      <path d="M20 21v-2a4 4 0 00-4-4H8a4 4 0 00-4 4v2" stroke="currentColor" stroke-width="2" stroke-linecap="round" stroke-linejoin="round"/>
      <circle cx="12" cy="7" r="4" stroke="currentColor" stroke-width="2" stroke-linecap="round" stroke-linejoin="round"/>
    </symbol>
    
    <symbol id="users" viewBox="0 0 24 24">
      <path d="M17 21v-2a4 4 0 00-4-4H5a4 4 0 00-4 4v2" stroke="currentColor" stroke-width="2" stroke-linecap="round" stroke-linejoin="round"/>
      <path d="M23 21v-2a4 4 0 00-3-3.87M16 3.13a4 4 0 010 7.75" stroke="currentColor" stroke-width="2" stroke-linecap="round" stroke-linejoin="round"/>
      <circle cx="9" cy="7" r="4" stroke="currentColor" stroke-width="2" stroke-linecap="round" stroke-linejoin="round"/>
    </symbol>
    
    <!-- Communication Icons -->
    <symbol id="mail" viewBox="0 0 24 24">
      <path d="M4 4h16c1.1 0 2 .9 2 2v12c0 1.1-.9 2-2 2H4c-1.1 0-2-.9-2-2V6c0-1.1.9-2 2-2z" stroke="currentColor" stroke-width="2" stroke-linecap="round" stroke-linejoin="round"/>
      <path d="M22 6l-10 7L2 6" stroke="currentColor" stroke-width="2" stroke-linecap="round" stroke-linejoin="round"/>
    </symbol>
    
    <symbol id="chat" viewBox="0 0 24 24">
      <path d="M21 15a2 2 0 01-2 2H7l-4 4V5a2 2 0 012-2h14a2 2 0 012 2z" stroke="currentColor" stroke-width="2" stroke-linecap="round" stroke-linejoin="round"/>
    </symbol>
    
    <symbol id="comment" viewBox="0 0 24 24">
      <path d="M21 11.5a8.38 8.38 0 01-.9 3.8 8.5 8.5 0 01-7.6 4.7 8.38 8.38 0 01-3.8-.9L3 21l1.9-5.7a8.38 8.38 0 01-.9-3.8 8.5 8.5 0 014.7-7.6 8.38 8.38 0 013.8-.9h.5a8.48 8.48 0 018 8v.5z" stroke="currentColor" stroke-width="2" stroke-linecap="round" stroke-linejoin="round"/>
    </symbol>
    
    <symbol id="bell" viewBox="0 0 24 24">
      <path d="M18 8A6 6 0 106 8c0 7-3 9-3 9h18s-3-2-3-9M13.73 21a2 2 0 01-3.46 0" stroke="currentColor" stroke-width="2" stroke-linecap="round" stroke-linejoin="round"/>
    </symbol>
    
    <!-- File Icons -->
    <symbol id="file" viewBox="0 0 24 24">
      <path d="M13 2H6a2 2 0 00-2 2v16a2 2 0 002 2h12a2 2 0 002-2V9z" stroke="currentColor" stroke-width="2" stroke-linecap="round" stroke-linejoin="round"/>
      <path d="M13 2v7h7" stroke="currentColor" stroke-width="2" stroke-linecap="round" stroke-linejoin="round"/>
    </symbol>
    
    <symbol id="folder" viewBox="0 0 24 24">
      <path d="M22 19a2 2 0 01-2 2H4a2 2 0 01-2-2V5a2 2 0 012-2h5l2 3h9a2 2 0 012 2z" stroke="currentColor" stroke-width="2" stroke-linecap="round" stroke-linejoin="round"/>
    </symbol>
    
    <!-- Business Icons -->
    <symbol id="calendar" viewBox="0 0 24 24">
      <rect x="3" y="4" width="18" height="18" rx="2" ry="2" stroke="currentColor" stroke-width="2" stroke-linecap="round" stroke-linejoin="round"/>
      <path d="M16 2v4M8 2v4M3 10h18" stroke="currentColor" stroke-width="2" stroke-linecap="round" stroke-linejoin="round"/>
    </symbol>
    
    <symbol id="clock" viewBox="0 0 24 24">
      <circle cx="12" cy="12" r="10" stroke="currentColor" stroke-width="2" stroke-linecap="round" stroke-linejoin="round"/>
      <path d="M12 6v6l4 2" stroke="currentColor" stroke-width="2" stroke-linecap="round" stroke-linejoin="round"/>
    </symbol>
    
    <!-- UI Elements -->
    <symbol id="settings" viewBox="0 0 24 24">
      <circle cx="12" cy="12" r="3" stroke="currentColor" stroke-width="2" stroke-linecap="round" stroke-linejoin="round"/>
      <path d="M12 1v6M12 17v6M4.22 4.22l4.24 4.24M15.54 15.54l4.24 4.24M1 12h6M17 12h6M4.22 19.78l4.24-4.24M15.54 8.46l4.24-4.24" stroke="currentColor" stroke-width="2" stroke-linecap="round" stroke-linejoin="round"/>
    </symbol>
    
    <symbol id="grid" viewBox="0 0 24 24">
      <rect x="3" y="3" width="7" height="7" stroke="currentColor" stroke-width="2" stroke-linecap="round" stroke-linejoin="round"/>
      <rect x="14" y="3" width="7" height="7" stroke="currentColor" stroke-width="2" stroke-linecap="round" stroke-linejoin="round"/>
      <rect x="14" y="14" width="7" height="7" stroke="currentColor" stroke-width="2" stroke-linecap="round" stroke-linejoin="round"/>
      <rect x="3" y="14" width="7" height="7" stroke="currentColor" stroke-width="2" stroke-linecap="round" stroke-linejoin="round"/>
    </symbol>
    
    <symbol id="list" viewBox="0 0 24 24">
      <path d="M8 6h13M8 12h13M8 18h13M3 6h.01M3 12h.01M3 18h.01" stroke="currentColor" stroke-width="2" stroke-linecap="round" stroke-linejoin="round"/>
    </symbol>
    
    <!-- Project Specific Icons -->
    <symbol id="project" viewBox="0 0 24 24">
      <path d="M3 3h18v18H3zM3 9h18M9 21V9" stroke="currentColor" stroke-width="2" stroke-linecap="round" stroke-linejoin="round"/>
    </symbol>
    
    <symbol id="planning" viewBox="0 0 24 24">
      <path d="M14 2H6a2 2 0 00-2 2v16a2 2 0 002 2h12a2 2 0 002-2V8z" stroke="currentColor" stroke-width="2" stroke-linecap="round" stroke-linejoin="round"/>
      <path d="M14 2v6h6M16 13H8M16 17H8M10 9H8" stroke="currentColor" stroke-width="2" stroke-linecap="round" stroke-linejoin="round"/>
    </symbol>
    
    <symbol id="feedback" viewBox="0 0 24 24">
      <path d="M21 15a2 2 0 01-2 2H7l-4 4V5a2 2 0 012-2h14a2 2 0 012 2z" stroke="currentColor" stroke-width="2" stroke-linecap="round" stroke-linejoin="round"/>
      <path d="M8 12h.01M12 12h.01M16 12h.01" stroke="currentColor" stroke-width="2" stroke-linecap="round" stroke-linejoin="round"/>
    </symbol>
    
    <symbol id="spinner" viewBox="0 0 24 24">
      <circle cx="12" cy="12" r="10" stroke="currentColor" stroke-width="3" stroke-opacity="0.25"/>
      <path d="M12 2a10 10 0 010 20" stroke="currentColor" stroke-width="3" stroke-linecap="round"/>
    </symbol>
  </defs>
</svg>